# xmcd CD database file
# Copyright (C) 1993-1998  Ti Kan
#
# Track frame offsets:
#	150
#	10145
#	20567
#	26315
#	36562
#	50375
#	62250
#	74520
#	85802
#	96970
#	110297
#	120475
#	132030
#	141390
#
# Disc length: 2084 seconds
#
# Revision: 1
# Processed by: cddbd v1.4b41PL1 Copyright (c) Steve Scherf et al.
# Submitted via: xmcd 2.4 PL0
#
DISCID=b608220e
DTITLE=Various Artists - Country Legends - GSS 5125
DYEAR=1900
DGENRE=
TTITLE0=Jimmy Reeves: Home (Miller)
TTITLE1=Patsy Cline: Three Cigarettes In An Ashtray (Miller/Stevenson)
TTITLE2=Buck Owens: Blue Love (Jenkins)
TTITLE3=Dolly Parton: Release Me (Miller/Stevenson)
TTITLE4=Willie Nelson: Blue Eyes Crying In The Rain [Live](Rose)
TTITLE5=Tammy Wynette: Stand By Your Man [Live](Wynette/Sherrill)
TTITLE6=Johnny Cash: I Walk The Line (Cash)
TTITLE7=Bobby Bare: Please Don't Tell Me How The Story Ends (Kristoffers
TTITLE7=on)
TTITLE8=Kitty Wells: Heartbreak U.S.A. (Howard)
TTITLE9=Kenny Rogers: Ruby, Don't Take Your Love To Town (Tillis)
TTITLE10=Merle Travis: Divorce Me C.O.D. (Travis/Fisher)
TTITLE11=Freddy Fender: Before The Next Teardrop Falls (Peters/Keith)
TTITLE12=Faron Young: Busted (Howard)
TTITLE13=Don Williams: I Recall A Gypsy Woman (Reynolds/McDill)
EXTD=RadioHami OH3NYB - CD - 1
EXTT0=
EXTT1=
EXTT2=
EXTT3=
EXTT4=
EXTT5=
EXTT6=
EXTT7=
EXTT8=
EXTT9=
EXTT10=
EXTT11=
EXTT12=
EXTT13=
PLAYORDER=
